<?xml version="1.0" encoding="UTF-8"?>
<svg width="77px" height="77px" viewBox="0 0 77 77" version="1.1" xmlns="http://www.w3.org/2000/svg" xmlns:xlink="http://www.w3.org/1999/xlink">
    <!-- Generator: Sketch 52.2 (67145) - http://www.bohemiancoding.com/sketch -->
    <title>Page 1</title>
    <desc>Created with Sketch.</desc>
    <g id="Symbols" stroke="none" stroke-width="1" fill="none" fill-rule="evenodd">
        <g id="Bits/Logo/Bruner-Dynamics-Color">
            <g id="Page-1">
                <path d="M76.7962415,38.4937026 C76.7962415,59.753145 59.6047748,76.9874052 38.3981208,76.9874052 C17.1914667,76.9874052 0,59.753145 0,38.4937026 C0,17.2342602 17.1914667,0 38.3981208,0 C59.6047748,0 76.7962415,17.2342602 76.7962415,38.4937026" id="Fill-3" fill="#C6E3EA"></path>
                <path d="M55.766162,43.3407524 C55.766162,43.3407524 57.2218174,44.7450721 58.2286123,44.7685442 C59.2356928,44.7917301 60.1810979,44.3431836 61.3275192,41.5557264 C62.4739406,38.7682691 63.5715356,36.4940498 63.0592865,33.926429 C62.5470375,31.3590944 61.3275192,28.6692468 61.3275192,28.6692468 L47.5938765,19.5468937 C47.5938765,19.5468937 27.7155293,22.1468602 27.4959532,22.4614439 C27.2766626,22.7763138 18.5964111,31.6639457 17.8979935,32.1580052 C17.1995758,32.6523509 17.7655054,38.5481465 18.0207733,39.5016297 C18.2760413,40.4553993 19.5403884,45.8837561 19.9692614,48.8180572 C20.3981343,51.7523584 25.1545696,51.3856781 26.0325884,51.3123993 C26.9106073,51.2388342 25.2008262,50.6863807 29.5680777,51.3662134 C33.9356148,52.0457599 31.6045104,54.5401019 38.9898626,51.6790796 C46.3752148,48.8180572 47.3862928,47.864574 47.3862928,47.864574 C47.3862928,47.864574 50.0340551,44.5633063 51.0585532,43.9765033 C52.0830513,43.3897004 55.766162,43.3407524 55.766162,43.3407524" id="Fill-5" fill="#DDD9CB"></path>
                <path d="M36.5454296,31.8022022 C36.5454296,31.8022022 39.1757742,28.9626483 41.0071931,28.9137004 C42.8386119,28.8647524 45.4489692,29.4578528 46.1194044,31.8022022 C46.7898396,34.1465517 46.9851453,37.6189941 45.1799956,38.4013026 C43.3751314,39.1838974 40.3473226,39.8571465 37.6553025,38.6457561 C34.9632824,37.434652 35.1794321,34.586797 35.4232786,33.6086967 C35.6674107,32.6305963 36.5454296,31.8022022 36.5454296,31.8022022" id="Fill-7" fill="#FFFFFF"></path>
                <path d="M21.4713161,31.2103041 C21.4713161,31.2103041 25.288057,30.7234007 26.4042117,33.46191 C27.5203664,36.2007056 27.0326733,39.4535978 25.9593488,40.4434342 C24.8863098,41.4335569 23.4226595,42.0693078 21.4713161,41.7269584 C19.5199727,41.3846089 17.5060972,39.2641033 17.5617765,37.1209844 C17.6174557,34.9778654 19.4665777,31.8978654 21.4713161,31.2103041" id="Fill-9" fill="#FFFFFF"></path>
                <path d="M19.3248384,53.6597257 C19.3248384,53.6597257 19.8799176,51.5074468 21.236778,50.945261 C22.5933528,50.3830751 23.6178509,49.4539227 24.9838484,49.6004803 C26.3495604,49.7473242 29.1792082,50.9695918 30.0084006,50.945261 C30.8378786,50.9209301 32.9842421,50.2542647 33.5207616,49.585023 C34.0575667,48.9160677 35.6642698,47.0085286 36.470905,47.0085286 C37.2772547,47.0085286 40.3992899,47.399826 41.2773088,48.035577 C42.1556132,48.6713279 42.8386119,48.9160677 43.7166308,48.4758223 C44.5946497,48.035577 46.7901252,45.9614431 47.5704912,44.8221866 C48.3511428,43.6832164 51.7658509,36.1518149 52.5465025,35.3692201 C53.3268686,34.5869115 55.1956925,35.1250528 55.3344623,35.8584134 C55.4735176,36.591774 56.4003629,40.161826 55.7661906,43.3408669 C55.1320182,46.5196216 54.8393453,53.7576216 54.5954987,55.3714729 C54.3513667,56.9853242 54.3513667,59.2349264 53.083022,59.8706773 C51.8146774,60.5064283 50.8878321,60.3595844 49.863334,61.8268781 C48.8388358,63.2938855 43.8631101,69.7928 43.8631101,69.7928 C43.8631101,69.7928 42.4934006,70.5318855 41.7390182,70.287432 C40.9846358,70.0429784 40.6919629,70.1294245 39.7162912,69.7928 C38.7406195,69.4561755 37.5699277,68.3801792 36.9845818,68.1357257 C36.3989503,67.8909859 35.8624308,68.2333353 35.0332384,68.6246327 C34.2037604,69.0159301 32.5939164,69.6027331 32.1062233,69.2603836 C31.6182447,68.9180342 30.5452057,67.4510268 29.4230547,67.6954803 C28.3009038,67.9399338 27.0325591,67.3531309 25.7642145,65.8858372 C24.4958698,64.4188297 22.3677805,62.3647331 21.236778,60.8977257 C20.1054899,59.430432 19.3736648,54.7846699 19.3248384,53.6597257" id="Fill-11" fill="#4F432F"></path>
                <path d="M14.8855179,28.6692468 C14.8855179,28.6692468 17.2446047,19.837719 19.3972499,16.7365368 C21.5501808,13.6353546 26.3551569,8.99445874 28.4478399,7.76274498 C30.5402374,6.53131747 41.3511481,3.62993457 46.1192902,6.46633978 C50.8877179,9.30274498 56.9673204,11.6774364 60.1567418,25.0502468 C60.9048424,28.354377 61.3274336,28.6692468 61.3274336,28.6692468 C61.3274336,28.6692468 57.8633279,28.688139 57.6440374,30.1946483 C57.4247468,31.7014439 57.7174197,33.4775963 56.6443808,33.9098268 C55.5710562,34.3423435 53.5234877,33.4372357 53.5229166,33.1561428 C53.52206,32.8750498 52.3513682,30.6326037 52.3513682,30.6326037 C52.3513682,30.6326037 50.6926977,28.9623621 49.9120462,28.2779494 C49.1316801,27.5932506 45.8391808,21.7246483 46.1192902,20.2576409 L46.3996852,18.7903472 C46.3996852,18.7903472 43.3221933,22.1803509 41.0070789,23.8108045 C38.6919644,25.4415442 38.3159153,25.1481428 37.186626,25.1481428 C36.0576223,25.1481428 34.6916248,26.6151502 33.8624323,26.7130461 C33.0329543,26.810942 31.5010613,27.9132729 30.3646336,28.1935071 C29.2279204,28.4737413 28.2522487,29.4495517 28.2522487,29.4495517 C28.2522487,29.4495517 26.8862512,31.9888342 26.0082323,31.7961911 C25.1299279,31.603548 22.3005657,31.1049086 21.6175669,31.0118788 C20.9345682,30.9188491 19.9691757,33.1561428 19.9691757,33.1561428 L16.0562097,36.5501539 C16.0562097,36.5501539 16.2515153,34.513232 15.7635367,33.1561428 C15.2758436,31.7990535 14.8855179,28.6692468 14.8855179,28.6692468" id="Fill-13" fill="#4F432F"></path>
                <path d="M40.2482992,35.8177093 C40.7979533,35.6826015 41.9849206,35.1736572 42.1516728,34.2370625 C42.2775936,32.5934416 40.9238741,32.556516 40.3459521,32.9000104 C39.5698691,33.4129621 39.218947,33.9974751 39.0342062,34.6532632 C38.8211974,35.4089509 39.4022603,36.0255234 40.2482992,35.8177093" id="Fill-15" fill="#202E39"></path>
                <path d="M23.8373128,35.5037268 C23.3981606,34.2370911 22.6860374,34.6610204 22.162938,34.7972732 C21.7883166,34.8948829 21.3408839,35.3683327 21.2569367,35.7478941 C21.1712764,36.1348978 21.3668675,36.8035669 21.6658223,36.99621 C21.9787682,37.1982993 22.6826109,37.1447714 22.9972701,36.9091914 C23.4895317,36.5410799 23.9469581,36.4889833 23.8373128,35.5037268" id="Fill-17" fill="#202E39"></path>
                <path d="M41.2776229,50.9975007 C40.9018594,50.8475082 40.4764128,51.0315639 40.3270782,51.4079766 C40.3099462,51.4511996 38.8345889,55.0438651 35.038121,55.9638576 C33.3788795,56.0382814 31.765038,56.1682368 30.2554166,55.8310398 C28.269238,55.3876457 26.7362028,54.6081996 24.6735009,53.6595825 C23.5813311,54.2956197 24.6735009,56.6308093 27.6059411,57.2542517 C29.5492896,57.66759 31.7039336,58.1814004 33.6983927,57.6329543 C36.5246141,57.4952703 38.4599675,56.1499171 39.6289462,54.9640026 C41.0551914,53.5173186 41.6616669,52.0136717 41.6870795,51.9504115 C41.8364141,51.5739989 41.6531009,51.1472071 41.2776229,50.9975007" id="Fill-19" fill="#202E39"></path>
                <path d="M55.6884681,26.5415851 C54.7704743,25.1850684 53.2171662,21.9384736 52.4873397,22.4957933 C51.7577989,23.053113 53.1335045,24.8996818 53.310536,25.9739606 C53.4256064,26.672113 53.5366794,27.7658565 53.1589171,28.0701353 C52.3297247,28.7379457 51.4040215,28.2095368 50.9528769,27.3150201 C49.5006479,24.4365368 46.9702404,21.9321762 47.7340454,18.2493435 C47.780302,18.0254996 48.2411548,17.4212357 47.3311561,17.3244848 C46.4211574,17.2277338 43.1175221,21.8606149 39.8752769,22.8143844 C39.7076681,21.1696186 42.1598391,18.3014401 40.7567221,18.2733881 C39.3536052,18.2453361 34.9760743,24.7931985 30.8249725,26.8083658 C32.1923976,24.5078119 33.4167699,22.4972245 34.5706152,20.4468491 C34.7202353,20.1812134 35.2893058,19.218284 34.4281335,19.0554104 C33.6049372,18.8996929 32.9128014,19.5938379 32.2466492,19.8878119 C32.5204769,18.8226929 33.8704844,17.5955591 32.546175,16.7806186 C30.9668831,15.8091019 30.515453,17.7944996 29.6734114,18.6257561 C27.6446882,20.6289011 24.6734152,23.9132803 23.6272165,24.6752654 C22.5807322,25.4372506 22.739775,24.6102877 23.0133171,24.2808193 C23.7151611,22.5415926 25.5568592,19.2918491 25.2276379,18.7932097 C24.898702,18.2948565 21.043414,19.2949978 18.8659272,19.5560535 C19.3747498,17.7472691 20.4346542,16.2330312 21.6478907,14.8470312 C23.1389523,13.1435851 24.7382316,11.535745 26.2926819,9.88840297 C28.2377435,8.91602751 30.1088517,7.7275368 32.1467121,7.02594944 C35.7975574,5.7690461 39.8398706,5.41810929 43.3610831,6.4835145 C48.5892215,8.06502007 53.4775737,10.7998082 55.8897699,16.2862729 C57.289746,19.4701799 58.5572341,22.7130535 59.8538467,25.9416149 C60.0679976,26.4754625 60.1253901,27.072284 60.2501687,27.6172952 C57.6880668,28.6469197 56.9910769,28.4662989 55.6884681,26.5415851 Z M53.5226882,29.8288268 C55.5040127,30.0406483 55.5371347,31.1753249 56.0705133,32.4711576 C54.2156806,32.1474141 54.1985486,31.0007152 53.5226882,29.8288268 Z M55.3132756,41.428061 C54.8018831,46.477429 53.7693901,51.5107673 53.871897,56.5850387 C53.9612693,60.9955071 52.0110681,58.9517152 50.7415813,59.4306037 C48.9364316,60.2129123 46.2498366,66.3113695 42.9930291,69.7926855 C41.8437523,69.4125517 41.0265523,67.7984141 39.550053,68.9797487 C39.3421838,69.1460572 38.3690819,68.5423658 37.8851008,68.1344662 C36.3146605,66.8108677 36.3386454,66.7819569 34.7245184,68.0772171 C33.2300303,69.2765851 31.9845284,68.2074587 31.7646668,67.8047115 C31.5450907,67.4019643 31.5002618,66.8572394 31.2581284,66.3354141 C30.8740844,65.5067338 28.6743259,62.8332022 28.0121712,62.2567041 C27.3497309,61.6802059 26.5094026,61.4248751 26.5094026,61.4248751 C26.5094026,61.4248751 28.5324152,65.1194439 29.6654165,67.1420535 C29.1817209,67.3195257 28.299419,67.3578825 28.0618542,67.0724959 C25.2895989,63.7414587 21.3009662,61.6607413 21.2367209,56.6428602 C21.2218731,55.4844253 20.5991221,54.4590944 20.8018517,53.6596112 C21.0048668,52.8601279 20.8095611,52.5652952 21.3766328,51.9495814 C23.1786416,49.9919494 25.7193284,49.8056037 28.6197888,51.0418974 C31.5419498,52.2876372 33.2951322,50.927113 34.5392064,48.8916223 C34.6105901,48.7748342 34.7987574,48.3262877 35.1725221,48.0912803 C37.3502945,48.1903212 40.0111913,48.1327859 41.787502,49.3424587 C42.70778,49.9690498 43.5649548,49.6421576 44.210263,48.957745 C45.7675687,47.3063955 47.453936,45.7174476 48.696297,43.8422543 C50.2784442,41.4543955 51.474263,38.808916 52.9387699,36.0841465 C53.9124429,35.1020387 55.5397045,39.1921985 55.3132756,41.428061 Z M19.970946,43.5156483 C19.9295435,43.2016372 20.6485196,42.5186558 21.0748228,42.4628379 C22.2175322,42.3134178 23.3922215,42.4118862 24.6734152,42.4118862 C24.4455586,44.5289569 24.4349938,46.3314439 23.9895599,48.0182877 C23.7799775,48.8123323 22.7340643,49.3842506 21.9339964,50.1911762 C20.118853,48.0672357 20.2604781,45.7105777 19.970946,43.5156483 Z M19.0346781,39.0278937 C18.2209045,37.6327338 18.266019,36.1602877 19.1343297,34.7748602 C19.3950228,34.3589457 19.759936,33.9988491 20.1179964,33.6562134 C21.1670504,32.6529234 22.021941,31.2131093 23.8816278,32.0569606 C25.5939787,32.8341167 26.4482982,34.2979755 26.3186655,36.8369717 C26.2524215,37.1183509 26.2055938,37.8482766 25.9114932,38.4582654 C25.3098718,39.7065814 24.7162454,41.1186297 23.0444404,41.1727301 C21.3469372,41.2276892 19.908985,40.5269606 19.0346781,39.0278937 Z M16.9554152,35.1020387 C16.6104894,32.8930833 17.3277523,32.0460833 18.8722089,31.2102468 C19.1997171,33.2268454 17.9530731,33.696574 16.9554152,35.1020387 Z M32.0970291,20.1482952 C31.8097813,21.3118825 31.7264052,22.6191651 31.0865221,23.5351502 C29.4966655,25.8105145 27.6149926,27.8826446 25.8206932,30.0108788 C25.5842706,30.291113 25.1648203,30.5896669 24.8338857,30.5856595 C23.5010102,30.568771 22.1692769,30.4362394 20.7113372,30.0443695 C25.4791938,27.7529755 28.9358756,24.117087 32.0970291,20.1482952 Z M46.1690303,29.476745 C45.7989775,29.503652 45.2824454,29.4318045 45.0534467,29.1922171 C42.0156442,26.0131762 39.7496416,28.9114104 37.3822743,30.2395888 C36.3866152,30.7983398 35.4549158,31.7612691 34.903263,32.7662766 C33.6891699,34.9772357 31.7009926,34.3317524 29.9004114,34.4370907 C28.1295259,34.5409978 27.5721624,33.2414439 26.987102,31.847429 C28.5661083,30.7030201 29.90498,29.719481 31.2598416,28.7591279 C31.6593045,28.4760312 32.1641297,27.9779643 32.5193347,28.0538193 C35.4731901,28.6864216 37.544458,26.0106 40.3309901,26.0289197 C40.883214,26.0323546 41.5670693,25.6811316 41.9662467,25.273232 C42.8582567,24.362113 43.6094982,23.3124513 44.7276517,21.9384736 C45.6907599,24.2370238 46.5610693,26.1677487 47.3008894,28.1471353 C47.6332517,29.0370721 46.9419725,29.4200684 46.1690303,29.476745 Z M36.6961347,32.8739048 C38.0238706,30.953771 40.169663,30.3191651 42.1726882,29.490771 C42.4545108,29.3739829 42.992458,29.5208268 43.2411586,29.7400907 C44.7562052,31.0748528 46.0776592,32.5481576 46.1184907,35.3118565 C46.1513272,36.8129271 45.2473247,38.1119086 43.2811335,38.8071985 C41.1964454,39.5439941 37.5661586,38.317719 36.3654857,36.4742989 C35.5257284,35.1850498 35.9174819,33.9994216 36.6961347,32.8739048 Z M34.4112869,48.0457673 C34.0392353,48.0457673 33.664614,48.4705554 33.3311096,48.8830349 C32.1367184,50.3603472 30.5520014,50.3732283 28.9652857,50.1694216 C25.7992781,49.7629532 24.1040592,46.3231428 26.1896039,43.9756446 C27.6938001,42.2825033 28.216614,40.442232 28.7622706,38.4665665 C29.1054831,37.2225442 29.2402555,35.8814848 30.9645989,35.6819717 C32.4442391,35.5110833 33.5404064,35.7372171 34.6123033,37.0316186 C37.1378567,40.0809903 40.5017397,40.8650164 44.007819,39.5720461 C47.2123737,38.3904253 48.4007687,36.0629643 47.5572995,32.7276335 C47.3993989,32.1033323 47.4313787,31.4306558 47.3756995,30.7803063 C48.2168844,30.7416632 49.1265976,30.4757413 49.8869762,30.7058825 C52.4844844,31.492771 52.7760152,32.107626 51.7289599,34.5733435 C50.4052215,37.6908416 49.0198077,40.7860126 47.5347423,43.829087 C47.0219221,44.8801799 46.2218542,45.8362394 45.3935184,46.6778007 C43.7696831,48.3274327 43.1312278,48.2676074 40.9411775,47.3312989 C39.6953901,46.7988825 38.2922731,46.5246595 36.9442643,46.4115926 C35.8946391,46.3237152 35.6185272,47.4732766 34.4104303,48.0457673 L34.4112869,48.0457673 Z M20.7738693,21.1123695 C20.6742177,23.0430944 19.3716089,23.4495628 18.0207448,23.8110907 C18.299141,22.3503807 19.0538089,21.3871651 20.7738693,21.1123695 Z M62.7717247,30.7244885 C62.613824,30.214113 62.4307964,29.7220572 62.3397108,29.4521279 C60.5839586,24.2639309 59.274497,18.8876706 56.4625523,14.122258 C53.6874416,9.41981933 49.4563901,6.38304238 44.2402442,5.2268974 C41.3994605,4.59715762 38.2640052,4.86451078 35.3247121,5.23433978 C31.8523259,5.67115019 28.5920919,6.92576357 26.2992492,9.86092342 C20.6627964,13.2552208 17.3131901,18.3191874 15.5103247,24.5659197 C15.0220605,26.2584885 14.3801787,27.9407524 13.5509863,29.4890535 C12.9482228,30.6148565 11.9177284,31.4355219 12.5890203,32.9740907 C12.7826127,33.417771 10.5720039,35.3370461 10.1902442,35.8697487 C9.48640138,36.8515703 8.17779635,37.1209271 7.99476868,37.8414067 C7.81202654,38.5616 9.97066805,37.8414067 10.7142001,37.3158602 C11.4580177,36.7906 12.4850857,35.4300758 13.4404844,34.5650424 C13.754858,34.2802283 14.4115875,34.0420721 14.7288165,34.1863398 C15.0494718,34.3323249 15.3095938,34.9809569 15.3047397,35.405745 C15.2910341,36.5822134 12.5630366,40.5670349 14.0318265,39.685113 C15.5006165,38.8031911 15.9063611,38.0678268 16.6621712,37.0696892 C17.4742316,40.778284 18.8479385,44.0074178 18.274014,47.3049643 C17.7423486,50.3586297 18.0207448,53.2414067 18.3662416,56.2080535 C18.6863259,58.9568677 19.1397548,61.5854587 21.996814,62.9648751 C22.327463,63.1243138 22.5244819,63.552823 22.797453,63.8433621 C24.8730039,66.0543212 26.6450316,68.7261353 30.1825196,68.7249903 C30.3604077,68.7249903 30.58598,68.8449271 30.7087599,68.9817524 C32.1846882,70.6259457 33.6431989,70.2114625 35.1885121,69.05589 C35.5123083,68.8140126 36.3634869,68.7198379 36.5342366,68.9245033 C37.7186341,70.3434216 39.5694693,69.6716037 40.883214,70.4144104 C42.52618,71.3432766 43.5518203,70.5967487 44.4889448,69.4640758 C46.1356228,67.4729532 47.6934995,65.4082654 49.3161926,63.3968193 C49.9326618,62.6325442 50.5425636,61.4125665 51.2986592,61.2903398 C54.4329725,60.783113 54.8938253,58.547823 55.1459523,56.0600647 C55.4968743,52.5982134 55.7084555,49.1163249 56.2092831,45.6768007 C56.6293045,42.7914476 57.0070668,39.9538974 56.3826026,37.0550907 C56.2718152,36.5407078 56.4197221,35.5265405 56.6669951,35.4492543 C58.4527284,34.8925071 58.4236039,33.8153658 58.1649096,32.2309978 C58.0546932,31.5543138 58.9786831,30.3809941 59.7256416,29.9733807 C60.1993435,29.7149011 60.5970932,29.8185219 60.9274567,30.0976112 C61.5339322,31.4690126 62.4068114,33.7635554 62.3222932,35.0539494 C62.2354907,36.3758305 61.9716567,40.3984364 59.6548291,43.0533621 C59.2961976,43.4646967 58.5258253,43.3318788 58.5232555,43.3313063 C58.1275045,43.2488677 57.7403196,43.5053435 57.6592278,43.9023658 C57.5778504,44.2991019 57.8328328,44.6869643 58.2288693,44.7685442 C58.383058,44.8003175 58.5786492,44.8223584 58.7970831,44.8223584 C59.4132668,44.8223584 60.2087662,44.6466037 60.756136,44.0194401 C61.4100102,43.2703361 63.3993297,40.9906781 63.7825171,35.1504141 C63.8656077,33.8834922 63.3051033,32.0990387 62.7717247,30.7244885 Z" id="Fill-21" fill="#202E39"></path>
            </g>
        </g>
    </g>
</svg>