<?xml version="1.0" encoding="UTF-8"?>
<svg width="260px" height="260px" viewBox="0 0 260 260" version="1.1" xmlns="http://www.w3.org/2000/svg" xmlns:xlink="http://www.w3.org/1999/xlink">
    <!-- Generator: Sketch 52.2 (67145) - http://www.bohemiancoding.com/sketch -->
    <title>CadeKynastonLogo-02</title>
    <desc>Created with Sketch.</desc>
    <g id="Page-1" stroke="none" stroke-width="1" fill="none" fill-rule="evenodd">
        <path d="M225.641,188.735 L158.112,129.509 L225.641,70.283 C236.297,87.516 242.465,107.802 242.465,129.509 C242.465,151.216 236.297,171.503 225.641,188.735 Z M149.61,240.638 L149.61,144.072 L215.881,202.194 C199.255,221.919 176.016,235.873 149.61,240.638 Z M149.61,18.381 C176.015,23.146 199.255,37.099 215.881,56.824 L149.61,114.946 L149.61,18.381 Z M133.056,129.465 L133.006,129.509 L133.056,129.554 L133.056,242.375 C131.876,242.412 130.699,242.465 129.51,242.465 C67.225,242.465 16.554,191.794 16.554,129.509 C16.554,67.225 67.225,16.554 129.51,16.554 C130.699,16.554 131.876,16.607 133.056,16.644 L133.056,129.465 Z M238.22,59.251 C235.198,54.593 231.895,50.139 228.318,45.917 C208.651,22.706 180.989,6.478 149.61,1.567 C144.197,0.72 138.667,0.242 133.056,0.09 C131.875,0.058 130.699,0 129.51,0 C58.097,0 0,58.097 0,129.509 C0,200.921 58.097,259.02 129.51,259.02 C130.699,259.02 131.875,258.961 133.056,258.929 C138.667,258.778 144.197,258.299 149.61,257.452 C180.989,252.541 208.651,236.313 228.318,213.101 C231.895,208.88 235.198,204.425 238.22,199.767 C251.356,179.513 259.02,155.396 259.02,129.509 C259.02,103.622 251.356,79.506 238.22,59.251 Z" id="CadeKynastonLogo-02" fill="#FAFAFF"></path>
    </g>
</svg>