<?xml version="1.0" encoding="UTF-8"?>
<svg width="260px" height="260px" viewBox="0 0 260 260" version="1.1" xmlns="http://www.w3.org/2000/svg" xmlns:xlink="http://www.w3.org/1999/xlink">
    <!-- Generator: Sketch 52.2 (67145) - http://www.bohemiancoding.com/sketch -->
    <title>CadeKynastonLogo-01</title>
    <desc>Created with Sketch.</desc>
    <g id="Page-1" stroke="none" stroke-width="1" fill="none" fill-rule="evenodd">
        <g id="CadeKynastonLogo-01" fill="#FAFAFF">
            <path d="M151.155,114.681 L228.69,46.681 C209.3,23.729 182.086,7.622 151.155,2.458 L151.155,114.681" id="Fill-1"></path>
            <path d="M239.193,199.492 C251.886,179.457 259.264,155.722 259.264,130.249 C259.264,104.777 251.886,81.042 239.193,61.007 L160.242,130.249 L239.193,199.492" id="Fill-2"></path>
            <path d="M133.458,130.297 L133.404,130.249 L133.458,130.202 L133.458,0.748 C132.196,0.711 130.938,0.652 129.667,0.652 C58.092,0.652 0.069,58.674 0.069,130.249 C0.069,201.824 58.092,259.847 129.667,259.847 C130.938,259.847 132.196,259.788 133.458,259.751 L133.458,130.297" id="Fill-3"></path>
            <path d="M151.155,145.817 L151.155,258.041 C182.087,252.877 209.3,236.77 228.69,213.818 L151.155,145.817" id="Fill-4"></path>
        </g>
    </g>
</svg>