<svg height="512pt" viewBox="0 0 512 512" width="512pt" xmlns="http://www.w3.org/2000/svg"><path d="m358.761719 0h-205.523438c-13.9375 0-25.238281 11.300781-25.238281 25.238281v205.523438c0 13.9375 11.300781 25.238281 25.238281 25.238281h205.523438c13.9375 0 25.238281-11.300781 25.238281-25.238281v-205.523438c0-13.9375-11.300781-25.238281-25.238281-25.238281zm0 0" fill="#f94530"/><path d="m358.761719 0h-36.226563c13.9375 0 25.238282 11.300781 25.238282 25.238281v205.523438c0 13.9375-11.300782 25.238281-25.238282 25.238281h36.226563c13.9375 0 25.238281-11.300781 25.238281-25.238281v-205.523438c0-13.9375-11.300781-25.238281-25.238281-25.238281zm0 0" fill="#d63b29"/><path d="m231.5 512h-207c-13.53125 0-24.5-10.96875-24.5-24.5v-207c0-13.53125 10.96875-24.5 24.5-24.5h207c13.53125 0 24.5 10.96875 24.5 24.5v207c0 13.53125-10.96875 24.5-24.5 24.5zm0 0" fill="#68a1d7"/><path d="m230.761719 256h-36.058594c13.941406 0 25.242187 11.300781 25.242187 25.238281v205.523438c0 13.9375-11.300781 25.238281-25.242187 25.238281h36.058594c13.9375 0 25.238281-11.300781 25.238281-25.238281v-205.523438c0-13.9375-11.300781-25.238281-25.238281-25.238281zm0 0" fill="#5d8fbf"/><path d="m212.355469 475.773438h-168.710938c-4.097656 0-7.417969-3.320313-7.417969-7.417969v-168.710938c0-4.097656 3.320313-7.417969 7.417969-7.417969h168.710938c4.097656 0 7.417969 3.320313 7.417969 7.417969v168.710938c0 4.097656-3.320313 7.417969-7.417969 7.417969zm0 0" fill="#f7e29c"/><path d="m212.132812 292.226562h-36.226562c4.222656 0 7.644531 3.421876 7.644531 7.640626v168.265624c0 4.21875-3.421875 7.640626-7.644531 7.640626h36.226562c4.21875 0 7.640626-3.421876 7.640626-7.640626v-168.265624c0-4.21875-3.421876-7.640626-7.640626-7.640626zm0 0" fill="#dbc98b"/><path d="m486.761719 256h-205.523438c-13.9375 0-25.238281 11.300781-25.238281 25.238281v205.523438c0 13.9375 11.300781 25.238281 25.238281 25.238281h205.523438c13.9375 0 25.238281-11.300781 25.238281-25.238281v-205.523438c0-13.9375-11.300781-25.238281-25.238281-25.238281zm0 0" fill="#ffb30f"/><path d="m486.761719 256h-36.226563c13.9375 0 25.238282 11.300781 25.238282 25.238281v205.523438c0 13.9375-11.300782 25.238281-25.238282 25.238281h36.226563c13.9375 0 25.238281-11.300781 25.238281-25.238281v-205.523438c0-13.9375-11.300781-25.238281-25.238281-25.238281zm0 0" fill="#d6960d"/><path d="m468.132812 292.226562h-168.265624c-4.21875 0-7.640626 3.421876-7.640626 7.640626v168.265624c0 4.21875 3.421876 7.640626 7.640626 7.640626h168.265624c4.21875 0 7.640626-3.421876 7.640626-7.640626v-168.265624c0-4.21875-3.421876-7.640626-7.640626-7.640626zm0 0" fill="#f7e29c"/><path d="m468.132812 292.226562h-36.226562c4.222656 0 7.644531 3.421876 7.644531 7.640626v168.265624c0 4.21875-3.421875 7.640626-7.644531 7.640626h36.226562c4.21875 0 7.640626-3.421876 7.640626-7.640626v-168.265624c0-4.21875-3.421876-7.640626-7.640626-7.640626zm0 0" fill="#dbc98b"/><path d="m340.355469 219.773438h-168.710938c-4.097656 0-7.417969-3.320313-7.417969-7.417969v-168.710938c0-4.097656 3.320313-7.417969 7.417969-7.417969h168.710938c4.097656 0 7.417969 3.320313 7.417969 7.417969v168.710938c0 4.097656-3.320313 7.417969-7.417969 7.417969zm0 0" fill="#f7e29c"/><path d="m340.132812 36.226562h-36.226562c4.222656 0 7.644531 3.421876 7.644531 7.640626v168.265624c0 4.21875-3.421875 7.640626-7.644531 7.640626h36.226562c4.21875 0 7.640626-3.421876 7.640626-7.640626v-168.265624c0-4.21875-3.421876-7.640626-7.640626-7.640626zm0 0" fill="#dbc98b"/><path d="m112.308594 444.027344h31.382812c10.027344 0 18.1875-8.160156 18.1875-18.1875v-24.378906c0-7.828126-5.578125-14.609376-13.261718-16.121094l-6.792969-1.339844 6.792969-1.339844c7.683593-1.511718 13.261718-8.292968 13.261718-16.121094v-24.378906c0-10.027344-8.160156-18.1875-18.1875-18.1875h-31.378906c-10.03125 0-18.1875 8.160156-18.1875 18.1875v83.679688c-.003906 10.027344 8.15625 18.1875 18.183594 18.1875zm34.117187-18.1875c0 1.507812-1.226562 2.734375-2.734375 2.734375h-31.378906c-1.507812 0-2.734375-1.226563-2.734375-2.734375v-32.445313l36.054687 7.105469c1.515626.296875.46875.96875.792969 25.339844zm-36.851562-83.679688c0-1.507812 1.226562-2.734375 2.734375-2.734375h31.378906c1.507812 0 2.734375 1.226563 2.734375 2.734375-.320313 24.269532.722656 25.042969-.789063 25.339844l-36.058593 7.105469zm0 0" fill="#68a1d7"/><path d="m381.199219 343.28125h30.941406c4.269531 0 7.726563-3.457031 7.726563-7.726562 0-4.265626-3.457032-7.726563-7.726563-7.726563h-30.941406c-18.230469 0-33.066407 14.835937-33.066407 33.070313v46.203124c0 18.234376 14.835938 33.070313 33.066407 33.070313h30.941406c4.269531 0 7.726563-3.460937 7.726563-7.726563 0-4.265624-3.457032-7.726562-7.726563-7.726562h-30.941406c-9.710938 0-17.613281-7.902344-17.613281-17.617188v-46.203124c0-9.714844 7.902343-17.617188 17.613281-17.617188zm0 0" fill="#f2b134"/><path d="m260.042969 62.324219c-22.007813 0-39.910157 17.90625-39.910157 39.910156v77.1875c0 4.269531 3.457032 7.726563 7.726563 7.726563 4.265625 0 7.726563-3.457032 7.726563-7.726563v-40.863281h48.910156v40.863281c0 4.269531 3.460937 7.726563 7.726562 7.726563 4.269532 0 7.726563-3.457032 7.726563-7.726563v-77.1875c.003906-22.003906-17.902344-39.910156-39.90625-39.910156zm-24.457031 60.78125v-20.867188c0-13.488281 10.972656-24.460937 24.457031-24.460937s24.457031 10.972656 24.457031 24.460937v20.867188zm0 0" fill="#f94530"/></svg>